<svg width="396" height="60" viewBox="0 0 396 60" fill="none" xmlns="http://www.w3.org/2000/svg">
<g clip-path="url(#clip0_185_801)">
<path d="M40.11 48.0278L12.43 1.71777H0.349976L34.07 58.1278L40.11 48.0278Z" fill="#88BFE5"/>
<path d="M44.16 21.3979L42.19 24.5879L28.64 1.80786H16.54L42.2 44.8379L56.27 21.2779L49.55 10.0779H53.29L58.15 18.2979C58.15 18.2979 65.94 5.08786 67.9 1.81786H32.43L44.18 21.4179L44.16 21.3979Z" fill="#88BFE5"/>
<path d="M67.88 1.80779C67.69 2.17779 68.12 1.39779 67.88 1.80779V1.80779Z" fill="#88BFE5"/>
<path d="M210.82 23.0677C207.48 19.3577 202.79 17.4977 196.75 17.4977C190.39 17.4977 185.16 19.4777 181.03 23.3977L182.12 18.3677H170.91L173.22 7.31773H162.33L160.02 18.3677H144.23L139.94 38.5577C138.4 45.4977 135.09 48.9677 130 48.9677C127.77 48.9677 126.17 48.2077 125.19 46.6977C124.21 45.1877 124.01 43.1077 124.59 40.4577L129.2 18.3577H118.31L113.62 40.5377C113.39 41.6277 113.26 42.6877 113.2 43.7277L104.01 1.67773H93.68L59.8 58.1177H71.92L79.65 45.2377H102.51L105.21 58.1177H116.34L115.13 52.5677C115.26 52.8177 115.39 53.0677 115.53 53.3077C117.81 57.0477 121.25 58.9077 125.86 58.9077C130.47 58.9077 134.07 57.2677 136.67 53.9777L135.8 58.1077H146.69L153.09 27.8977H157.95L155.17 41.2577C154 46.5077 154.63 50.6677 157.04 53.7377C159.45 56.8077 162.99 58.3977 167.65 58.5077C169.56 58.5577 171.57 58.3177 173.69 57.7877L175.73 48.2077C176.56 50.1077 177.7 51.8777 179.17 53.4977C182.56 57.2077 187.25 59.0677 193.24 59.0677C199.92 59.0677 205.35 56.9077 209.54 52.5877C213.73 48.2677 215.82 42.8977 215.82 36.4877C215.82 31.2377 214.15 26.7677 210.81 23.0577L210.82 23.0677ZM85.71 35.1477L96.54 17.0977L100.36 35.1477H85.71ZM171.39 48.7477C166.78 48.7477 164.95 46.4977 165.9 41.9877L168.84 27.9177H177.35C175.19 31.4377 174.09 35.4877 174.09 40.0777C174.09 42.9977 174.64 45.6777 175.69 48.1277C174.33 48.5377 172.9 48.7477 171.39 48.7477ZM201.79 45.6077C199.75 47.8077 197.19 48.9077 194.12 48.9077C191.31 48.9077 189.11 48.0377 187.52 46.2877C185.93 44.5377 185.14 42.1577 185.14 39.1377C185.14 35.9577 186.16 33.2577 188.2 31.0277C190.24 28.7977 192.77 27.6877 195.79 27.6877C198.65 27.6877 200.88 28.5577 202.47 30.3077C204.06 32.0577 204.85 34.4377 204.85 37.4577C204.85 40.6877 203.83 43.4077 201.79 45.6077Z" fill="white"/>
<path d="M252.65 20.7477L242.45 1.67773H230.05L244.68 28.9477L217.18 58.1277H231.01L257.8 30.3777L252.65 20.7477Z" fill="#88BFE5"/>
<path d="M347.45 27.6377C349.97 24.4277 351.23 20.5777 351.23 16.0677C351.23 12.0377 349.71 8.63773 346.66 5.85773C343.61 3.07773 339.44 1.68773 334.14 1.68773H315.38L305.71 47.1577H283.78L293.47 1.67773H270.35L256.17 16.7377L257.05 18.3777L261.37 26.4677L281.28 4.74773L270.84 53.8577L262.35 38.5877L260.33 34.9477L252.49 43.0677L260.82 58.1177H314.9L319.91 34.3477H323.01L338.19 58.1177H350.99L335.57 33.9477C340.98 32.9377 344.94 30.8377 347.45 27.6277V27.6377ZM337.2 22.6677C335.69 23.8877 333.66 24.4977 331.12 24.4977H322.06L324.6 12.2577H333.11C335.23 12.2577 336.83 12.7577 337.92 13.7677C339.01 14.7777 339.55 16.0977 339.55 17.7477C339.5 19.8177 338.72 21.4577 337.2 22.6777V22.6677Z" fill="#88BFE5"/>
<path d="M393.74 22.3478C395.06 20.0178 395.7 17.5278 395.65 14.8778C395.54 11.0078 393.98 7.68778 390.96 4.89778C387.94 2.11778 383.99 0.727783 379.11 0.727783C373.49 0.727783 368.95 2.18778 365.48 5.09778C362.01 8.01778 360.27 11.9378 360.27 16.8678C360.27 20.5278 361.41 23.5678 363.69 26.0078C360.19 27.4878 357.58 29.7178 355.86 32.6878C354.14 35.6578 353.28 38.8578 353.28 42.3078C353.28 46.7078 354.99 50.5878 358.41 53.9578C361.83 57.3278 366.53 59.0078 372.52 59.0078C378.51 59.0078 383.42 57.3778 387.43 54.1178C391.43 50.8578 393.43 46.0778 393.43 39.7678C393.43 35.0478 391.65 31.2078 388.1 28.2378C390.54 26.6478 392.42 24.6878 393.74 22.3578V22.3478ZM379.67 46.3178C377.97 48.0378 375.72 48.8978 372.91 48.8978C370.1 48.8978 368.05 48.1578 366.59 46.6678C365.13 45.1878 364.4 43.3578 364.4 41.1778C364.4 38.5778 365.25 36.4178 366.94 34.6978C368.64 32.9778 370.89 32.0878 373.7 32.0378C376.51 32.0378 378.63 32.8078 380.06 34.3478C381.49 35.8878 382.21 37.7178 382.21 39.8378C382.21 42.4378 381.36 44.5978 379.67 46.3178ZM383.05 21.5978C381.65 22.8978 379.8 23.5678 377.53 23.6278C375.36 23.6278 373.7 23.0878 372.56 21.9978C371.42 20.9078 370.85 19.4678 370.85 17.6678C370.85 15.4978 371.55 13.7578 372.96 12.4578C374.36 11.1578 376.21 10.4878 378.48 10.4278C380.65 10.4278 382.31 10.9678 383.45 12.0578C384.59 13.1478 385.16 14.5578 385.16 16.3078C385.16 18.5378 384.46 20.2978 383.05 21.5978Z" fill="#88BFE5"/>
</g>
<defs>
<clipPath id="clip0_185_801">
<rect width="395.3" height="58.35" fill="white" transform="translate(0.349976 0.727783)"/>
</clipPath>
</defs>
</svg>
