<svg width="175" height="43" viewBox="0 0 175 43" fill="none" xmlns="http://www.w3.org/2000/svg">
<g clip-path="url(#clip0_324_12)">
<path d="M23.2109 37.1483L7.05224 10.3239H0L19.6825 43L23.2109 37.1483Z" fill="#88BFE5"/>
<path d="M25.5749 21.7241L24.4239 23.5736L16.5083 10.3722H9.44283L24.4239 35.2988L32.636 21.6538L28.7092 15.1651H30.8917L33.7294 19.9229C33.7294 19.9229 38.276 12.27 39.4182 10.3722H18.713L25.5749 21.7241Z" fill="#88BFE5"/>
<path d="M39.4226 10.3722C39.3119 10.583 39.5643 10.1393 39.4226 10.3722V10.3722Z" fill="#88BFE5"/>
<path d="M56.0195 37.9479H55.1341V42.921H56.0195V37.9479Z" fill="#F0F2F5"/>
<path d="M60.504 39.6349C60.504 40.4476 60.5129 41.256 60.5616 41.871H60.5483C60.4642 41.6426 60.2163 41.1549 58.5517 37.9523H57.4096V42.9254H58.2241V41.2384C58.2241 40.3466 58.2241 39.4987 58.1887 38.8661H58.1976C58.2817 39.0594 58.4543 39.4284 60.2384 42.9298H61.323V37.9567H60.5085V39.6393L60.504 39.6349Z" fill="#F0F2F5"/>
<path d="M64.9355 40.2939C64.7274 40.9441 64.5016 41.6645 64.3998 42.0951H64.3865C64.2891 41.6294 64.0811 40.9484 63.873 40.2763L63.1647 37.9523H62.2129L63.842 42.9254H64.9001L66.5823 37.9523H65.6748L64.9311 40.2983L64.9355 40.2939Z" fill="#F0F2F5"/>
<path d="M67.4899 37.9479V42.9254H70.6773L70.7836 42.2005H68.3532V40.6936H70.5578V39.96H68.3532V38.6816H70.6552V37.9479H67.4899Z" fill="#F0F2F5"/>
<path d="M73.5859 39.938C72.8421 39.7227 72.5898 39.5909 72.5898 39.1868C72.5898 38.7826 72.8377 38.5674 73.3335 38.5674C73.8958 38.5674 74.1171 38.8617 74.1835 39.279H75.0557C74.9981 38.5146 74.5067 37.8908 73.3468 37.8908C72.3994 37.8908 71.7044 38.396 71.7044 39.2746C71.7044 39.9907 72.1028 40.3817 73.2273 40.698C74.0065 40.9265 74.2765 41.1285 74.2765 41.6118C74.2765 42.0335 74.0109 42.3015 73.4265 42.3015C72.8421 42.3015 72.5278 41.9984 72.4437 41.4844H71.5672C71.6336 42.4421 72.3109 42.9912 73.3867 42.9912C74.6262 42.9912 75.1796 42.3279 75.1796 41.5151C75.1796 40.8122 74.8564 40.3158 73.5903 39.9468" fill="#F0F2F5"/>
<path d="M75.8658 37.9479V38.686H77.2603V42.9254H78.1546V38.686H79.5491V37.9479H75.8658Z" fill="#F0F2F5"/>
<path d="M82.918 41.7831H82.9092C82.7587 41.0539 82.2318 39.2175 81.8157 37.9479H80.492V42.921H81.311V41.0758C81.311 40.2192 81.2933 39.1297 81.2491 38.5498H81.2845C81.5014 39.5426 82.1167 41.7304 82.4621 42.9166H83.2412C83.706 41.502 84.3081 39.5426 84.5339 38.563H84.5649C84.5428 39.1121 84.5295 40.1006 84.5295 40.9704V42.9166H85.3839V37.9435H84.1045C83.6706 39.2263 83.0154 41.1901 82.9136 41.7787" fill="#F0F2F5"/>
<path d="M86.7961 37.9479V42.9254H89.9836L90.0898 42.2005H87.6594V40.6936H89.864V39.96H87.6594V38.6816H89.9614V37.9479H86.7961Z" fill="#F0F2F5"/>
<path d="M94.2645 39.6349C94.2645 40.4476 94.2733 41.256 94.322 41.871H94.3088C94.2246 41.6426 93.9767 41.1549 92.3122 37.9523H91.17V42.9254H91.9846V41.2384C91.9846 40.3466 91.9846 39.4987 91.9492 38.8661H91.958C92.0421 39.0594 92.2148 39.4284 93.9989 42.9298H95.0835V37.9567H94.2689V39.6393L94.2645 39.6349Z" fill="#F0F2F5"/>
<path d="M96.0264 37.9479V38.686H97.4254V42.9254H98.3152V38.686H99.7141V37.9479H96.0264Z" fill="#F0F2F5"/>
<path d="M104.438 39.938C103.694 39.7227 103.442 39.5909 103.442 39.1868C103.442 38.7826 103.69 38.5674 104.185 38.5674C104.748 38.5674 104.969 38.8617 105.035 39.279H105.908C105.85 38.5146 105.359 37.8908 104.199 37.8908C103.251 37.8908 102.556 38.396 102.556 39.2746C102.556 39.9907 102.955 40.3817 104.079 40.698C104.858 40.9265 105.128 41.1285 105.128 41.6118C105.128 42.0335 104.863 42.3015 104.278 42.3015C103.694 42.3015 103.38 41.9984 103.296 41.4844H102.419C102.485 42.4421 103.163 42.9912 104.239 42.9912C105.478 42.9912 106.031 42.3279 106.031 41.5151C106.031 40.8122 105.708 40.3158 104.442 39.9468" fill="#F0F2F5"/>
<path d="M109.108 42.2883C108.245 42.2883 107.82 41.458 107.82 40.4037C107.82 39.3493 108.205 38.5937 109.099 38.5937C109.994 38.5937 110.392 39.424 110.392 40.4169C110.392 41.502 110.034 42.2927 109.108 42.2927M109.139 37.882C107.585 37.882 106.908 39.1516 106.908 40.4037C106.908 41.8446 107.581 42.9956 109.073 42.9956C110.565 42.9956 111.3 41.8402 111.3 40.4081C111.3 38.9759 110.605 37.8776 109.139 37.8776" fill="#F0F2F5"/>
<path d="M112.468 37.9479V42.9254H115.545L115.651 42.2005H113.354V37.9479H112.468Z" fill="#F0F2F5"/>
<path d="M119.361 41.1154C119.361 41.7787 119.175 42.2884 118.37 42.2884C117.564 42.2884 117.356 41.7568 117.356 41.1154V37.9479H116.466V41.1505C116.466 42.2444 116.935 42.9913 118.352 42.9913C119.769 42.9913 120.26 42.1741 120.26 41.133V37.9479H119.366V41.111L119.361 41.1154Z" fill="#F0F2F5"/>
<path d="M121.172 37.9479V38.686H122.566V42.9254H123.461V38.686H124.855V37.9479H121.172Z" fill="#F0F2F5"/>
<path d="M126.688 37.9479H125.803V42.921H126.688V37.9479Z" fill="#F0F2F5"/>
<path d="M130.057 42.2883C129.194 42.2883 128.769 41.458 128.769 40.4037C128.769 39.3493 129.154 38.5937 130.048 38.5937C130.942 38.5937 131.341 39.424 131.341 40.4169C131.341 41.502 130.982 42.2927 130.057 42.2927M130.083 37.882C128.53 37.882 127.852 39.1516 127.852 40.4037C127.852 41.8446 128.525 42.9956 130.017 42.9956C131.509 42.9956 132.244 41.8402 132.244 40.4081C132.244 38.9759 131.549 37.8776 130.083 37.8776" fill="#F0F2F5"/>
<path d="M136.507 39.6349C136.507 40.4476 136.516 41.256 136.565 41.871H136.551C136.467 41.6426 136.219 41.1549 134.555 37.9523H133.413V42.9254H134.227V41.2384C134.227 40.3466 134.227 39.4987 134.192 38.8661H134.201C134.285 39.0594 134.457 39.4284 136.241 42.9298H137.326V37.9567H136.512V39.6393L136.507 39.6349Z" fill="#F0F2F5"/>
<path d="M140.456 39.938C139.712 39.7227 139.46 39.5909 139.46 39.1868C139.46 38.7826 139.708 38.5674 140.204 38.5674C140.766 38.5674 140.987 38.8617 141.054 39.279H141.926C141.868 38.5146 141.377 37.8908 140.217 37.8908C139.27 37.8908 138.575 38.396 138.575 39.2746C138.575 39.9907 138.973 40.3817 140.097 40.698C140.877 40.9265 141.147 41.1285 141.147 41.6118C141.147 42.0335 140.881 42.3015 140.297 42.3015C139.712 42.3015 139.398 41.9984 139.314 41.4844H138.437C138.504 42.4421 139.181 42.9912 140.257 42.9912C141.496 42.9912 142.05 42.3279 142.05 41.5151C142.05 40.8122 141.727 40.3158 140.46 39.9468" fill="#F0F2F5"/>
<path d="M135.498 7.21792C136.529 7.21792 137.401 6.86647 138.11 6.15917C138.822 5.45188 139.177 4.604 139.177 3.60676C139.177 2.60952 138.822 1.76165 138.11 1.05435C137.401 0.351451 136.529 0 135.498 0C134.524 0 133.669 0.351451 132.948 1.05875C132.222 1.76604 131.863 2.61392 131.863 3.61116C131.863 4.6084 132.226 5.45627 132.948 6.16357C133.674 6.87086 134.524 7.22231 135.498 7.22231V7.21792Z" fill="white"/>
<path d="M168.683 10.3722L163.034 19.7076L157.385 10.3722H147.876V4.604H142.147V10.3722H132.656V15.6264C131.987 14.3216 131.08 13.1926 129.924 12.2393C128.043 10.6885 125.71 9.9153 122.921 9.9153C119.769 9.9153 117.152 10.9609 115.063 13.0476C114.142 13.9658 113.438 14.985 112.92 16.0877C112.393 14.9938 111.672 13.9833 110.733 13.0652C108.586 10.9653 105.992 9.91091 102.955 9.91091C99.9178 9.91091 97.3236 10.9653 95.1765 13.0652C94.0166 14.203 93.1799 15.477 92.6486 16.8784V0H86.9201V16.6939C86.4287 15.354 85.7071 14.1723 84.7287 13.1706C82.6081 11.0004 79.9475 9.91091 76.7424 9.91091C73.5372 9.91091 70.9385 10.9345 68.8623 12.9817C68.5834 13.2585 68.3266 13.544 68.0831 13.8384L69.637 10.3678H63.2399L57.7239 23.6438L52.2034 10.3678H45.8905L55.1296 31.1122H60.3535L65.9139 18.6884C65.8076 19.3342 65.7501 20.0019 65.7501 20.6961C65.7501 23.8503 66.7727 26.4511 68.8224 28.4939C70.8721 30.5411 73.4973 31.5647 76.7025 31.5647C79.3233 31.5647 81.6076 30.8925 83.56 29.5526C85.0961 28.4939 86.2162 27.1891 86.9201 25.6383V31.1078H92.6486V24.6191C93.1799 26.0293 94.0166 27.3033 95.1765 28.4324C97.3236 30.5191 99.9134 31.5647 102.955 31.5647C105.996 31.5647 108.586 30.5191 110.733 28.4324C111.676 27.5186 112.398 26.5038 112.924 25.4055C113.438 26.5038 114.142 27.5186 115.058 28.4324C117.148 30.5191 119.769 31.5647 122.916 31.5647C125.705 31.5647 128.038 30.7915 129.92 29.2407C131.075 28.2918 131.983 27.1584 132.651 25.8536V31.1078H138.38V15.3408H142.143V23.8459C142.143 26.2797 142.886 28.138 144.378 29.4252C145.87 30.7124 147.787 31.3538 150.129 31.3538C151.55 31.3538 152.763 31.2 153.764 30.8969V25.8756C153.095 26.126 152.316 26.249 151.422 26.249C150.164 26.249 149.261 25.981 148.704 25.4406C148.146 24.9003 147.867 23.9953 147.867 22.7213V15.3364H154.073L159.868 24.9135L148.938 42.9824H155.251L174.996 10.3546H168.678L168.683 10.3722ZM73.2981 15.5385C74.1747 14.862 75.2682 14.5237 76.583 14.5237C77.6676 14.5237 78.6637 14.8356 79.5712 15.4594C80.4788 16.0833 81.0808 17.041 81.3907 18.3413H71.5672C71.8461 17.1552 72.4216 16.2195 73.3026 15.5429L73.2981 15.5385ZM86.9245 24.3511H81.4306C81.0941 25.0716 80.5319 25.6295 79.735 26.0337C78.9381 26.4335 78.0262 26.6356 76.9947 26.6356C75.2947 26.6356 73.9578 26.2007 72.9794 25.3264C72.0054 24.4566 71.4609 23.3715 71.3502 22.0711H86.9201V24.3511H86.9245ZM106.66 24.707C105.668 25.7438 104.438 26.2622 102.959 26.2622C101.481 26.2622 100.206 25.7438 99.2183 24.707C98.2267 23.6702 97.7353 22.3523 97.7353 20.7444C97.7353 19.1365 98.2311 17.8186 99.2183 16.7818C100.206 15.745 101.454 15.2266 102.959 15.2266C104.464 15.2266 105.668 15.745 106.66 16.7818C107.647 17.8186 108.143 19.1409 108.143 20.7444C108.143 22.3479 107.647 23.6702 106.66 24.707ZM132.656 23.1914H127.688C126.768 25.3484 125.178 26.4291 122.921 26.4291C121.389 26.4291 120.132 25.9107 119.158 24.8739C118.184 23.8371 117.692 22.4621 117.692 20.7444C117.692 19.0267 118.179 17.6516 119.158 16.6148C120.132 15.5781 121.389 15.0597 122.921 15.0597C125.178 15.0597 126.768 16.1404 127.688 18.2974H132.656V23.1914Z" fill="white"/>
</g>
<defs>
<clipPath id="clip0_324_12">
<rect width="175" height="43" fill="white"/>
</clipPath>
</defs>
</svg>
